<svg width="1080" height="1080" viewBox="0 0 1080 1080" fill="none" xmlns="http://www.w3.org/2000/svg">
<rect width="1080" height="1080" rx="108" fill="#10B981"/>
<g clip-path="url(#clip0_31_312)">
<path d="M140 790.4C140 832 154.667 867.2 184 896C213.333 924.8 248.8 939.467 290.4 940H790.4C831.467 940 866.667 925.333 896 896C925.333 866.667 940 831.467 940 790.4V290.4C940 257.867 930.667 228.8 912 203.2C893.333 177.6 869.333 159.733 840 149.6V215.2C840 236 832.8 253.867 818.4 268.8C804 283.733 786.133 290.933 764.8 290.4C743.467 289.867 725.867 282.667 712 268.8C698.133 254.933 690.933 237.067 690.4 215.2V140H390.4V215.2C390.4 236 382.933 253.867 368 268.8C353.067 283.733 335.467 290.933 315.2 290.4C294.933 289.867 277.067 282.667 261.6 268.8C246.133 254.933 238.933 237.067 240 215.2V149.6C210.667 160.267 186.667 178.133 168 203.2C149.333 228.267 140 257.333 140 290.4L140 790.4ZM240 790.4V390.4H840V790.4C840 804.267 835.2 816 825.6 825.6C816 835.2 804.267 840 790.4 840H290.4C276.533 840 264.533 835.2 254.4 825.6C244.267 816 239.467 804.267 240 790.4ZM290.4 215.2C290.4 222.133 292.8 228 297.6 232.8C302.4 237.6 308.267 240 315.2 240C322.133 240 328 237.6 332.8 232.8C337.6 228 340 222.133 340 215.2V140H290.4V215.2ZM340 740H440V640H340V740ZM340 590.4H440V490.4H340V590.4ZM490.4 740H590.4V640H490.4V740ZM490.4 590.4H590.4V490.4H490.4V590.4ZM640 740H740V640H640V740ZM640 590.4H740V490.4H640V590.4ZM740 215.2C740 222.133 742.4 228 747.2 232.8C752 237.6 757.867 240 764.8 240C771.733 240 777.6 237.6 782.4 232.8C787.2 228 789.867 222.133 790.4 215.2V140H740V215.2Z" fill="white"/>
</g>
<defs>
<clipPath id="clip0_31_312">
<rect width="800" height="800" fill="white" transform="translate(140 140)"/>
</clipPath>
</defs>
</svg>
