<svg width="1080" height="1080" viewBox="0 0 1080 1080" fill="none" xmlns="http://www.w3.org/2000/svg">
<rect width="1080" height="1080" rx="108" fill="#10B981"/>
<path d="M673.333 540C673.333 613.637 613.637 673.333 540 673.333C466.362 673.333 406.667 613.637 406.667 540C406.667 466.362 466.362 406.667 540 406.667C613.637 406.667 673.333 466.362 673.333 540ZM673.333 540V590C673.333 636.023 710.643 673.333 756.667 673.333C802.69 673.333 840 636.023 840 590V540C840 374.315 705.687 240 540 240C374.315 240 240 374.315 240 540C240 705.687 374.315 840 540 840H673.333" stroke="white" stroke-width="80" stroke-linecap="round" stroke-linejoin="round"/>
</svg>
