<svg width="1080" height="1080" viewBox="0 0 1080 1080" fill="none" xmlns="http://www.w3.org/2000/svg">
<rect width="1080" height="1080" rx="108" fill="#10B981"/>
<path fill-rule="evenodd" clip-rule="evenodd" d="M391.6 859.992C693.48 859.992 858.6 613.734 858.6 400.207C858.6 393.197 858.6 386.239 858.12 379.308C890.24 356.467 917.96 328.106 940 295.656C910.08 308.731 878.28 317.305 845.76 321.086C880 300.883 905.64 269.143 917.92 231.691C885.68 250.515 850.44 263.801 813.68 270.929C751.52 205.87 647.56 202.718 581.44 263.918C538.84 303.378 520.72 362.213 533.96 418.332C402 411.794 279.04 350.439 195.68 249.504C152.12 323.344 174.4 417.772 246.52 465.187C220.4 464.439 194.84 457.515 172 444.992V447.043C172.04 523.955 227.12 590.181 303.68 605.421C279.52 611.919 254.16 612.862 229.6 608.175C251.08 674.022 312.72 719.122 382.92 720.421C324.8 765.395 253 789.816 179.08 789.738C166.04 789.698 153 788.949 140 787.414C215.08 834.829 302.4 859.993 391.6 859.875" fill="white"/>
<path fill-rule="evenodd" clip-rule="evenodd" d="M391.6 859.992C693.48 859.992 858.6 613.734 858.6 400.207C858.6 393.197 858.6 386.239 858.12 379.308C890.24 356.467 917.96 328.106 940 295.656C910.08 308.731 878.28 317.305 845.76 321.086C880 300.883 905.64 269.143 917.92 231.691C885.68 250.515 850.44 263.801 813.68 270.929C751.52 205.87 647.56 202.718 581.44 263.918C538.84 303.378 520.72 362.213 533.96 418.332C402 411.794 279.04 350.439 195.68 249.504C152.12 323.344 174.4 417.772 246.52 465.187C220.4 464.439 194.84 457.515 172 444.992V447.043C172.04 523.955 227.12 590.181 303.68 605.421C279.52 611.919 254.16 612.862 229.6 608.175C251.08 674.022 312.72 719.122 382.92 720.421C324.8 765.395 253 789.816 179.08 789.738C166.04 789.698 153 788.949 140 787.414C215.08 834.829 302.4 859.993 391.6 859.875" fill="white"/>
</svg>
