<svg width="1080" height="1080" viewBox="0 0 1080 1080" fill="none" xmlns="http://www.w3.org/2000/svg">
<rect width="1080" height="1080" rx="108" fill="#10B981"/>
<path fill-rule="evenodd" clip-rule="evenodd" d="M459.538 643.445V418.972C539.226 456.469 600.944 492.692 673.938 531.745C613.734 565.134 539.226 602.597 459.538 643.445ZM903.64 307.331C889.894 289.221 866.466 275.124 841.524 270.456C768.21 256.534 310.839 256.495 237.566 270.456C217.564 274.206 199.753 283.269 184.453 297.351C119.985 357.187 140.187 678.068 155.726 730.046C162.26 752.545 170.708 768.77 181.346 779.421C195.052 793.502 213.819 803.198 235.374 807.546C295.738 820.032 606.722 827.013 840.248 809.421C861.764 805.672 880.809 795.664 895.83 780.984C955.437 721.387 951.374 382.485 903.64 307.331Z" fill="white"/>
</svg>
