<svg width="1080" height="1080" viewBox="0 0 1080 1080" fill="none" xmlns="http://www.w3.org/2000/svg">
<g clip-path="url(#clip0_22_135)">
<g filter="url(#filter0_d_22_135)">
<g clip-path="url(#clip1_22_135)">
<g filter="url(#filter1_f_22_135)">
<g filter="url(#filter2_f_22_135)">
<ellipse cx="539.5" cy="540" rx="1149.5" ry="201" fill="#7E349F"/>
</g>
</g>
<g filter="url(#filter3_f_22_135)">
<g filter="url(#filter4_f_22_135)">
<ellipse cx="539.66" cy="539.925" rx="1149.66" ry="200.579" transform="rotate(-60 539.66 539.925)" fill="#2E378B"/>
</g>
</g>
<g filter="url(#filter5_f_22_135)">
<g filter="url(#filter6_f_22_135)">
<ellipse cx="539.66" cy="539.924" rx="1149.66" ry="200.579" transform="rotate(-120 539.66 539.924)" fill="#71BCBB"/>
</g>
</g>
</g>
<rect x="0.5" y="0.5" width="1079" height="1079" rx="107.5" stroke="black" shape-rendering="crispEdges"/>
</g>
<g clip-path="url(#clip2_22_135)">
<path fill-rule="evenodd" clip-rule="evenodd" d="M540 140C760.92 140 940 323.597 940 550.117C940 731.277 825.52 884.958 666.68 939.238C646.4 943.278 639.2 930.471 639.2 919.551C639.2 906.031 639.68 861.872 639.68 806.992C639.68 768.752 626.88 743.794 612.52 731.074C701.6 720.914 795.2 686.231 795.2 528.711C795.2 483.911 779.68 447.353 754 418.633C758.16 408.273 771.88 366.558 750.08 310.078C750.08 310.078 716.56 299.089 640.2 352.129C608.24 343.049 574 338.48 540 338.32C506 338.48 471.8 343.049 439.88 352.129C363.44 299.089 329.84 310.078 329.84 310.078C308.12 366.558 321.84 408.273 325.96 418.633C300.4 447.353 284.76 483.911 284.76 528.711C284.76 685.831 378.16 721.046 467 731.406C455.56 741.646 445.2 759.71 441.6 786.23C418.8 796.71 360.88 814.848 325.2 752.168C325.2 752.168 304.04 712.763 263.88 709.883C263.88 709.883 224.88 709.365 261.16 734.805C261.16 734.805 287.36 747.405 305.56 794.805C305.56 794.805 329.04 868.003 440.32 843.203C440.52 877.483 440.88 909.791 440.88 919.551C440.88 930.391 433.52 943.077 413.56 939.277C254.6 885.077 140 731.317 140 550.117C140 323.597 319.12 140 540 140Z" fill="white"/>
</g>
</g>
<defs>
<filter id="filter0_d_22_135" x="-4" y="0" width="1088" height="1088" filterUnits="userSpaceOnUse" color-interpolation-filters="sRGB">
<feFlood flood-opacity="0" result="BackgroundImageFix"/>
<feColorMatrix in="SourceAlpha" type="matrix" values="0 0 0 0 0 0 0 0 0 0 0 0 0 0 0 0 0 0 127 0" result="hardAlpha"/>
<feOffset dy="4"/>
<feGaussianBlur stdDeviation="2"/>
<feComposite in2="hardAlpha" operator="out"/>
<feColorMatrix type="matrix" values="0 0 0 0 0 0 0 0 0 0 0 0 0 0 0 0 0 0 0.25 0"/>
<feBlend mode="normal" in2="BackgroundImageFix" result="effect1_dropShadow_22_135"/>
<feBlend mode="normal" in="SourceGraphic" in2="effect1_dropShadow_22_135" result="shape"/>
</filter>
<filter id="filter1_f_22_135" x="-1010" y="-61" width="3099" height="1202" filterUnits="userSpaceOnUse" color-interpolation-filters="sRGB">
<feFlood flood-opacity="0" result="BackgroundImageFix"/>
<feBlend mode="normal" in="SourceGraphic" in2="BackgroundImageFix" result="shape"/>
<feGaussianBlur stdDeviation="200" result="effect1_foregroundBlur_22_135"/>
</filter>
<filter id="filter2_f_22_135" x="-614" y="335" width="2307" height="410" filterUnits="userSpaceOnUse" color-interpolation-filters="sRGB">
<feFlood flood-opacity="0" result="BackgroundImageFix"/>
<feBlend mode="normal" in="SourceGraphic" in2="BackgroundImageFix" result="shape"/>
<feGaussianBlur stdDeviation="2" result="effect1_foregroundBlur_22_135"/>
</filter>
<filter id="filter3_f_22_135" x="-608.876" y="-956" width="2297.07" height="2991.85" filterUnits="userSpaceOnUse" color-interpolation-filters="sRGB">
<feFlood flood-opacity="0" result="BackgroundImageFix"/>
<feBlend mode="normal" in="SourceGraphic" in2="BackgroundImageFix" result="shape"/>
<feGaussianBlur stdDeviation="200" result="effect1_foregroundBlur_22_135"/>
</filter>
<filter id="filter4_f_22_135" x="-65.001" y="-464.824" width="1209.32" height="2009.5" filterUnits="userSpaceOnUse" color-interpolation-filters="sRGB">
<feFlood flood-opacity="0" result="BackgroundImageFix"/>
<feBlend mode="normal" in="SourceGraphic" in2="BackgroundImageFix" result="shape"/>
<feGaussianBlur stdDeviation="2" result="effect1_foregroundBlur_22_135"/>
</filter>
<filter id="filter5_f_22_135" x="-608.877" y="-956" width="2297.07" height="2991.85" filterUnits="userSpaceOnUse" color-interpolation-filters="sRGB">
<feFlood flood-opacity="0" result="BackgroundImageFix"/>
<feBlend mode="normal" in="SourceGraphic" in2="BackgroundImageFix" result="shape"/>
<feGaussianBlur stdDeviation="200" result="effect1_foregroundBlur_22_135"/>
</filter>
<filter id="filter6_f_22_135" x="-65.001" y="-464.825" width="1209.32" height="2009.5" filterUnits="userSpaceOnUse" color-interpolation-filters="sRGB">
<feFlood flood-opacity="0" result="BackgroundImageFix"/>
<feBlend mode="normal" in="SourceGraphic" in2="BackgroundImageFix" result="shape"/>
<feGaussianBlur stdDeviation="2" result="effect1_foregroundBlur_22_135"/>
</filter>
<clipPath id="clip0_22_135">
<rect width="1080" height="1080" fill="white"/>
</clipPath>
<clipPath id="clip1_22_135">
<rect width="1080" height="1080" rx="108" fill="white"/>
</clipPath>
<clipPath id="clip2_22_135">
<rect width="800" height="800" fill="white" transform="translate(140 140)"/>
</clipPath>
</defs>
</svg>
