<svg width="1080" height="1080" viewBox="0 0 1080 1080" fill="none" xmlns="http://www.w3.org/2000/svg">
<g clip-path="url(#clip0_22_106)">
<g filter="url(#filter0_d_22_106)">
<g clip-path="url(#clip1_22_106)">
<g filter="url(#filter1_f_22_106)">
<g filter="url(#filter2_f_22_106)">
<ellipse cx="539.5" cy="540" rx="1149.5" ry="201" fill="#7E349F"/>
</g>
</g>
<g filter="url(#filter3_f_22_106)">
<g filter="url(#filter4_f_22_106)">
<ellipse cx="539.66" cy="539.925" rx="1149.66" ry="200.579" transform="rotate(-60 539.66 539.925)" fill="#2E378B"/>
</g>
</g>
<g filter="url(#filter5_f_22_106)">
<g filter="url(#filter6_f_22_106)">
<ellipse cx="539.66" cy="539.924" rx="1149.66" ry="200.579" transform="rotate(-120 539.66 539.924)" fill="#71BCBB"/>
</g>
</g>
</g>
<rect x="0.5" y="0.5" width="1079" height="1079" rx="107.5" stroke="black" shape-rendering="crispEdges"/>
</g>
<path d="M859.325 165H220.325C220.125 165 219.9 165 219.65 165C189.675 165 165.35 189.1 165 218.975V860.775C165.35 890.675 189.675 914.8 219.65 914.8C219.9 914.8 220.125 914.8 220.375 914.8H859.25C859.45 914.8 859.7 914.8 859.95 914.8C889.95 914.8 914.325 890.725 914.8 860.825V860.775V219.025C914.325 189.1 889.95 165 859.925 165C859.675 165 859.45 165 859.2 165H859.325ZM387.375 803.95H276.025V446.175H387.375V803.95ZM331.725 397.225C296.1 397.225 267.25 368.35 267.25 332.75C267.25 297.15 296.125 268.275 331.725 268.275C367.325 268.275 396.2 297.125 396.2 332.725C396.2 332.75 396.2 332.775 396.2 332.825C396.2 368.4 367.35 397.25 331.775 397.25C331.75 397.25 331.725 397.25 331.7 397.25L331.725 397.225ZM803.775 803.95H692.75V629.975C692.75 588.475 691.9 535.1 634.9 535.1C577 535.1 568.175 580.25 568.175 626.925V803.975H457.15V446.2H563.8V494.975H565.25C585.95 460.1 623.4 437.1 666.225 437.1C667.75 437.1 669.25 437.125 670.75 437.175H670.525C783.025 437.175 803.825 511.225 803.825 607.6V803.975L803.775 803.95Z" fill="white"/>
</g>
<defs>
<filter id="filter0_d_22_106" x="-4" y="0" width="1088" height="1088" filterUnits="userSpaceOnUse" color-interpolation-filters="sRGB">
<feFlood flood-opacity="0" result="BackgroundImageFix"/>
<feColorMatrix in="SourceAlpha" type="matrix" values="0 0 0 0 0 0 0 0 0 0 0 0 0 0 0 0 0 0 127 0" result="hardAlpha"/>
<feOffset dy="4"/>
<feGaussianBlur stdDeviation="2"/>
<feComposite in2="hardAlpha" operator="out"/>
<feColorMatrix type="matrix" values="0 0 0 0 0 0 0 0 0 0 0 0 0 0 0 0 0 0 0.25 0"/>
<feBlend mode="normal" in2="BackgroundImageFix" result="effect1_dropShadow_22_106"/>
<feBlend mode="normal" in="SourceGraphic" in2="effect1_dropShadow_22_106" result="shape"/>
</filter>
<filter id="filter1_f_22_106" x="-1010" y="-60.9998" width="3099" height="1202" filterUnits="userSpaceOnUse" color-interpolation-filters="sRGB">
<feFlood flood-opacity="0" result="BackgroundImageFix"/>
<feBlend mode="normal" in="SourceGraphic" in2="BackgroundImageFix" result="shape"/>
<feGaussianBlur stdDeviation="200" result="effect1_foregroundBlur_22_106"/>
</filter>
<filter id="filter2_f_22_106" x="-614" y="335" width="2307" height="410" filterUnits="userSpaceOnUse" color-interpolation-filters="sRGB">
<feFlood flood-opacity="0" result="BackgroundImageFix"/>
<feBlend mode="normal" in="SourceGraphic" in2="BackgroundImageFix" result="shape"/>
<feGaussianBlur stdDeviation="2" result="effect1_foregroundBlur_22_106"/>
</filter>
<filter id="filter3_f_22_106" x="-608.876" y="-955.999" width="2297.07" height="2991.85" filterUnits="userSpaceOnUse" color-interpolation-filters="sRGB">
<feFlood flood-opacity="0" result="BackgroundImageFix"/>
<feBlend mode="normal" in="SourceGraphic" in2="BackgroundImageFix" result="shape"/>
<feGaussianBlur stdDeviation="200" result="effect1_foregroundBlur_22_106"/>
</filter>
<filter id="filter4_f_22_106" x="-65.001" y="-464.824" width="1209.32" height="2009.5" filterUnits="userSpaceOnUse" color-interpolation-filters="sRGB">
<feFlood flood-opacity="0" result="BackgroundImageFix"/>
<feBlend mode="normal" in="SourceGraphic" in2="BackgroundImageFix" result="shape"/>
<feGaussianBlur stdDeviation="2" result="effect1_foregroundBlur_22_106"/>
</filter>
<filter id="filter5_f_22_106" x="-608.876" y="-956" width="2297.07" height="2991.85" filterUnits="userSpaceOnUse" color-interpolation-filters="sRGB">
<feFlood flood-opacity="0" result="BackgroundImageFix"/>
<feBlend mode="normal" in="SourceGraphic" in2="BackgroundImageFix" result="shape"/>
<feGaussianBlur stdDeviation="200" result="effect1_foregroundBlur_22_106"/>
</filter>
<filter id="filter6_f_22_106" x="-65.0015" y="-464.825" width="1209.32" height="2009.5" filterUnits="userSpaceOnUse" color-interpolation-filters="sRGB">
<feFlood flood-opacity="0" result="BackgroundImageFix"/>
<feBlend mode="normal" in="SourceGraphic" in2="BackgroundImageFix" result="shape"/>
<feGaussianBlur stdDeviation="2" result="effect1_foregroundBlur_22_106"/>
</filter>
<clipPath id="clip0_22_106">
<rect width="1080" height="1080" fill="white"/>
</clipPath>
<clipPath id="clip1_22_106">
<rect width="1080" height="1080" rx="108" fill="white"/>
</clipPath>
</defs>
</svg>
