<svg width="1080" height="1080" viewBox="0 0 1080 1080" fill="none" xmlns="http://www.w3.org/2000/svg">
<circle cx="540" cy="540" r="500" fill="#1E1E20"/>
<path d="M455.173 411.562H401.191V717.868C341.346 717.868 341.346 717.868 341.346 668.527V411.562H239C239 361 239 361 283.7 361H504.025C504.025 411.562 504.025 411.562 455.173 411.562Z" fill="#10B981"/>
<path d="M780.531 717.868C739.251 717.38 727.77 710.785 700.901 678.298L620.05 578.394C605.639 560.319 607.349 526.122 641.057 526.122H663.041C701.39 526.122 720.442 527.343 729.969 520.259C738.762 514.397 737.052 483.62 737.052 474.827C737.052 452.843 729.969 424.753 662.064 424.753H602.708V717.624C587.075 717.624 547.504 720.555 534.07 710.052C525.276 702.968 523.567 689.045 523.567 661.199V417.425C523.567 388.846 519.414 365.152 557.275 361.733C566.068 361 577.793 361 593.426 361H659.132C799.095 361 816.682 427.195 816.682 474.827C816.682 556.655 767.829 585.722 712.626 585.722L841.597 717.624H780.531V717.868Z" fill="#10B981"/>
</svg>
