<svg width="9565" height="1618" viewBox="0 0 9565 1618" fill="none" xmlns="http://www.w3.org/2000/svg">
<path d="M991.061 543.294H857.947V1300.54C710.376 1300.54 710.376 1300.54 710.376 1178.56V543.294H458C458 418.294 458 418.294 568.226 418.294H1111.53C1111.53 543.294 1111.53 543.294 991.061 543.294Z" fill="#10B981"/>
<path d="M1694.58 1177.96V901.998C1694.58 768.545 1672.9 705.139 1522.92 705.139C1342.22 705.139 1342.22 705.139 1342.22 901.998L1341.02 1299.94C1196.46 1299.94 1196.46 1299.94 1196.46 1177.96V324.705C1341.02 324.705 1341.02 324.705 1341.02 448.497V679.777C1368.12 627.844 1431.37 581.951 1564.48 581.951C1795.17 581.951 1840.95 712.385 1840.95 915.283V1299.94C1694.58 1299.94 1694.58 1299.94 1694.58 1177.96Z" fill="#10B981"/>
<path d="M2293.3 1309C2015.62 1309 1945.15 1135.09 1945.15 947.286C1945.15 760.692 2018.03 586.779 2294.5 586.779C2567.96 586.779 2642.65 760.692 2642.65 947.286C2643.25 1136.29 2568.56 1309 2293.3 1309ZM2295.1 706.948C2095.73 706.948 2095.73 706.948 2095.73 946.682C2095.73 1081.95 2131.27 1188.23 2293.3 1188.23C2493.87 1188.23 2493.87 1188.23 2493.87 946.682C2493.87 816.247 2460.75 706.948 2295.1 706.948Z" fill="#10B981"/>
<path d="M3585.9 1173.74V876.637C3585.9 777.603 3567.23 708.763 3455.79 708.763C3322.68 708.763 3322.68 708.763 3322.68 876.637V1300.55C3173.9 1300.55 3173.9 1300.55 3173.9 1174.34V876.637C3173.9 777.603 3155.23 708.763 3043.8 708.763C2907.67 708.763 2907.67 708.763 2907.67 876.637V1300.55C2761.31 1300.55 2761.31 1300.55 2761.31 1174.34V593.425C2873.34 593.425 2873.34 593.425 2873.34 685.212C2896.23 639.319 2959.47 584.367 3091.39 584.367C3196.19 584.367 3254.62 624.826 3284.73 693.666C3306.42 643.546 3369.06 584.367 3503.98 584.367C3696.12 584.367 3735.88 719.633 3735.88 884.487V1299.34C3585.9 1299.95 3585.9 1299.95 3585.9 1173.74Z" fill="#10B981"/>
<path d="M4386.39 1193.66C4353.26 1248.01 4258.7 1307.19 4112.93 1307.19C3961.15 1307.19 3837.67 1241.37 3837.67 1093.42C3837.67 962.986 3921.99 859.122 4129.8 859.122H4352.06C4352.06 754.05 4293.03 715.402 4158.71 715.402H4015.35C3906.33 715.402 3906.33 715.402 3906.33 596.441H4154.49C4432.17 596.441 4497.22 711.175 4497.22 898.373V1300.55C4386.39 1299.94 4386.39 1299.94 4386.39 1193.66ZM4352.06 973.856H4152.69C3990.66 973.856 3989.45 973.856 3989.45 1091.61C3989.45 1156.22 4043.66 1193.66 4147.26 1193.66C4352.06 1193.66 4352.06 1193.66 4352.06 996.803V973.856Z" fill="#10B981"/>
<path d="M4871.26 1301.76H4594.8C4594.8 1182.8 4594.8 1182.8 4706.83 1182.8H4868.86C5038.11 1182.8 5038.11 1194.27 5038.11 1105.5C5038.11 953.328 4591.18 1056.59 4585.16 803.57C4582.15 679.778 4673.7 594.029 4892.95 594.029H5143.52C5143.52 711.783 5143.52 711.783 5037.51 711.783H4888.73C4730.92 711.783 4730.92 703.329 4730.92 798.135C4730.92 924.342 5180.86 836.782 5180.86 1097.05C5180.26 1199.7 5092.92 1301.76 4871.26 1301.76Z" fill="#10B981"/>
<path d="M5927.15 1299.94C5825.36 1298.73 5797.05 1282.43 5730.79 1202.11L5531.42 955.134C5495.88 910.448 5500.1 825.907 5583.22 825.907H5637.43C5731.99 825.907 5778.98 828.926 5802.47 811.414C5824.15 796.922 5819.93 720.835 5819.93 699.096C5819.93 644.748 5802.47 575.304 5635.02 575.304H5488.65V1299.34C5450.1 1299.34 5352.53 1306.58 5319.4 1280.62C5297.71 1263.1 5293.5 1228.68 5293.5 1159.84V557.792C5293.5 487.14 5283.26 428.565 5376.62 420.111C5398.3 418.903 5426.61 418.903 5465.16 418.903H5627.19C5972.32 418.903 6015.69 582.55 6015.69 700.304C6015.69 902.598 5895.23 974.458 5759.1 974.458L6077.13 1300.54H5927.15V1299.94Z" fill="#10B981"/>
<path d="M6465.63 1309C6170.49 1309 6095.8 1130.86 6095.8 947.286C6095.8 764.919 6174.71 586.779 6466.84 586.779C6754.75 586.779 6837.87 764.919 6837.87 947.286C6838.47 1133.28 6755.35 1309 6465.63 1309ZM6646.33 946.682C6646.33 825.909 6615.01 741.368 6467.44 741.368C6286.74 741.368 6288.55 742.576 6288.55 946.682C6288.55 1070.47 6322.88 1153.81 6466.23 1153.81C6648.14 1153.81 6643.92 1152.6 6643.92 946.682H6646.33Z" fill="#10B981"/>
<path d="M7323.95 1307.19C7024.59 1307.19 6945.68 1126.03 6945.68 939.438V324.705C7119.16 324.705 7133.61 331.951 7133.61 464.197V688.231C7169.15 627.844 7248.05 584.97 7351.65 584.97C7602.22 584.97 7670.89 755.863 7670.89 945.476C7670.89 1135.09 7582.95 1307.19 7323.95 1307.19ZM7479.95 945.476C7479.95 812.023 7446.82 745.598 7305.28 745.598C7130.6 745.598 7130.6 737.144 7130.6 945.476C7130.6 1081.95 7163.73 1152.6 7308.29 1152.6C7481.76 1152.6 7478.75 1153.81 7478.75 945.476H7479.95Z" fill="#10B981"/>
<path d="M7872.67 1307.18C7800.99 1307.18 7743.77 1288.46 7743.77 1202.11C7743.77 1115.76 7800.99 1095.83 7872.67 1095.83C7941.34 1095.83 8001.57 1115.76 8001.57 1202.11C8001.57 1288.46 7938.32 1307.18 7872.67 1307.18Z" fill="#10B981"/>
<path d="M8189.5 521.56C8120.83 521.56 8057.59 499.821 8057.59 415.28C8057.59 327.72 8117.82 309 8189.5 309C8258.16 309 8315.38 328.927 8315.38 415.28C8315.38 499.821 8258.16 521.56 8189.5 521.56ZM8096.14 1161.05V596.439C8133.48 596.439 8226.24 590.4 8259.37 616.366C8281.05 633.878 8285.27 665.279 8285.27 732.912V1300.54C8108.79 1299.94 8096.14 1292.69 8096.14 1161.05Z" fill="#10B981"/>
<path d="M8915.9 1163.47V909.246C8915.9 794.512 8897.23 741.372 8765.32 741.372C8682.2 741.372 8640.64 737.145 8620.76 757.072C8599.08 781.227 8605.1 883.279 8605.1 909.246V1299.95C8567.76 1299.95 8473.19 1307.19 8441.87 1281.23C8418.98 1263.71 8414.77 1231.1 8414.77 1163.47V594.633C8568.36 594.633 8568.36 594.633 8568.36 682.193C8611.13 630.261 8688.83 584.367 8806.28 584.367C9055.65 584.367 9105.64 728.087 9105.64 920.719V1299.95C8928.55 1299.95 8915.9 1294.51 8915.9 1163.47Z" fill="#10B981"/>
</svg>
