<svg width="9565" height="1618" viewBox="0 0 9565 1618" fill="none" xmlns="http://www.w3.org/2000/svg">
<mask id="mask0_25_171" style="mask-type:alpha" maskUnits="userSpaceOnUse" x="373" y="309" width="8644" height="1000">
<g clip-path="url(#clip0_25_171)">
<path d="M905.864 543.3H772.799V1300.55C625.283 1300.55 625.283 1300.55 625.283 1178.57V543.3H373C373 418.3 373 418.3 483.185 418.3H1026.29C1026.29 543.3 1026.29 543.3 905.864 543.3Z" fill="#10B981"/>
<path d="M1609.12 1177.96V901.995C1609.12 768.541 1587.45 705.135 1437.52 705.135C1256.89 705.135 1256.89 705.135 1256.89 901.995L1255.69 1299.94C1111.18 1299.94 1111.18 1299.94 1111.18 1177.96V324.7C1255.69 324.7 1255.69 324.7 1255.69 448.492V679.773C1282.78 627.84 1346 581.947 1479.07 581.947C1709.68 581.947 1755.44 712.381 1755.44 915.28V1299.94C1609.12 1299.94 1609.12 1299.94 1609.12 1177.96Z" fill="#10B981"/>
<path d="M2207.62 1309C1930.05 1309 1859.6 1135.09 1859.6 947.285C1859.6 760.69 1932.45 586.777 2208.82 586.777C2482.18 586.777 2556.84 760.69 2556.84 947.285C2557.44 1136.29 2482.78 1309 2207.62 1309ZM2209.42 706.946C2010.13 706.946 2010.13 706.946 2010.13 946.681C2010.13 1081.95 2045.65 1188.23 2207.62 1188.23C2408.12 1188.23 2408.12 1188.23 2408.12 946.681C2408.12 816.246 2375 706.946 2209.42 706.946Z" fill="#10B981"/>
<path d="M3499.74 1173.73V876.633C3499.74 777.599 3481.07 708.758 3369.68 708.758C3236.62 708.758 3236.62 708.758 3236.62 876.633V1300.55C3087.9 1300.55 3087.9 1300.55 3087.9 1174.34V876.633C3087.9 777.599 3069.23 708.758 2957.84 708.758C2821.77 708.758 2821.77 708.758 2821.77 876.633V1300.55C2675.45 1300.55 2675.45 1300.55 2675.45 1174.34V593.42C2787.45 593.42 2787.45 593.42 2787.45 685.208C2810.33 639.314 2873.55 584.362 3005.41 584.362C3110.17 584.362 3168.58 624.821 3198.68 693.662C3220.36 643.541 3282.98 584.362 3417.85 584.362C3609.92 584.362 3649.66 719.628 3649.66 884.483V1299.34C3499.74 1299.94 3499.74 1299.94 3499.74 1173.73Z" fill="#10B981"/>
<path d="M4299.94 1193.66C4266.82 1248.01 4172.29 1307.19 4026.58 1307.19C3874.85 1307.19 3751.42 1241.37 3751.42 1093.42C3751.42 962.985 3835.71 859.121 4043.44 859.121H4265.62C4265.62 754.048 4206.61 715.401 4072.34 715.401H3929.04C3820.06 715.401 3820.06 715.401 3820.06 596.439H4068.13C4345.7 596.439 4410.72 711.174 4410.72 898.372V1300.55C4299.94 1299.94 4299.94 1299.94 4299.94 1193.66ZM4265.62 973.855H4066.32C3904.35 973.855 3903.15 973.855 3903.15 1091.61C3903.15 1156.22 3957.34 1193.66 4060.9 1193.66C4265.62 1193.66 4265.62 1193.66 4265.62 996.802V973.855Z" fill="#10B981"/>
<path d="M4784.63 1301.75H4508.27C4508.27 1182.79 4508.27 1182.79 4620.26 1182.79H4782.22C4951.42 1182.79 4951.42 1194.27 4951.42 1105.5C4951.42 953.324 4504.65 1056.58 4498.63 803.565C4495.62 679.773 4587.14 594.024 4806.31 594.024H5056.78C5056.78 711.778 5056.78 711.778 4950.81 711.778H4802.09C4644.34 711.778 4644.34 703.324 4644.34 798.131C4644.34 924.338 5094.11 836.778 5094.11 1097.04C5093.51 1199.7 5006.21 1301.75 4784.63 1301.75Z" fill="#10B981"/>
<path d="M5840.12 1299.94C5738.37 1298.73 5710.07 1282.43 5643.84 1202.12L5444.54 955.135C5409.02 910.449 5413.23 825.908 5496.32 825.908H5550.51C5645.04 825.908 5692.01 828.927 5715.49 811.415C5737.16 796.923 5732.95 720.836 5732.95 699.097C5732.95 644.749 5715.49 575.304 5548.1 575.304H5401.79V1299.34C5363.26 1299.34 5265.71 1306.58 5232.6 1280.62C5210.92 1263.11 5206.71 1228.69 5206.71 1159.85V557.792C5206.71 487.14 5196.47 428.565 5289.8 420.111C5311.47 418.903 5339.77 418.903 5378.31 418.903H5540.28C5885.28 418.903 5928.63 582.551 5928.63 700.304C5928.63 902.599 5808.21 974.459 5672.14 974.459L5990.05 1300.55H5840.12V1299.94Z" fill="#10B981"/>
<path d="M6378.41 1309C6083.38 1309 6008.71 1130.86 6008.71 947.285C6008.71 764.917 6087.59 586.777 6379.61 586.777C6667.42 586.777 6750.51 764.917 6750.51 947.285C6751.11 1133.27 6668.02 1309 6378.41 1309ZM6559.04 946.681C6559.04 825.908 6527.73 741.367 6380.21 741.367C6199.58 741.367 6201.39 742.574 6201.39 946.681C6201.39 1070.47 6235.71 1153.81 6379.01 1153.81C6560.85 1153.81 6556.63 1152.6 6556.63 946.681H6559.04Z" fill="#10B981"/>
<path d="M7236.41 1307.19C6937.16 1307.19 6858.29 1126.03 6858.29 939.434V324.7C7031.69 324.7 7046.14 331.947 7046.14 464.193V688.227C7081.67 627.84 7160.54 584.966 7264.11 584.966C7514.58 584.966 7583.22 755.86 7583.22 945.473C7583.22 1135.09 7495.31 1307.19 7236.41 1307.19ZM7392.35 945.473C7392.35 812.019 7359.24 745.594 7217.74 745.594C7043.13 745.594 7043.13 737.14 7043.13 945.473C7043.13 1081.95 7076.25 1152.6 7220.75 1152.6C7394.16 1152.6 7391.15 1153.81 7391.15 945.473H7392.35Z" fill="#10B981"/>
<path d="M7784.93 1307.19C7713.28 1307.19 7656.08 1288.47 7656.08 1202.12C7656.08 1115.76 7713.28 1095.84 7784.93 1095.84C7853.57 1095.84 7913.78 1115.76 7913.78 1202.12C7913.78 1288.47 7850.56 1307.19 7784.93 1307.19Z" fill="#10B981"/>
<path d="M8101.63 521.56C8032.99 521.56 7969.77 499.821 7969.77 415.28C7969.77 327.72 8029.98 309 8101.63 309C8170.27 309 8227.48 328.928 8227.48 415.28C8227.48 499.821 8170.27 521.56 8101.63 521.56ZM8008.31 1161.05V596.44C8045.64 596.44 8138.36 590.401 8171.48 616.367C8193.15 633.879 8197.37 665.28 8197.37 732.913V1300.55C8020.95 1299.94 8008.31 1292.7 8008.31 1161.05Z" fill="#10B981"/>
<path d="M8827.77 1163.47V909.242C8827.77 794.507 8809.11 741.367 8677.25 741.367C8594.16 741.367 8552.61 737.14 8532.74 757.068C8511.07 781.222 8517.09 883.275 8517.09 909.242V1299.94C8479.76 1299.94 8385.23 1307.19 8353.92 1281.22C8331.04 1263.71 8326.82 1231.1 8326.82 1163.47V594.628C8480.36 594.628 8480.36 594.628 8480.36 682.188C8523.11 630.256 8600.78 584.362 8718.19 584.362C8967.46 584.362 9017.44 728.082 9017.44 920.715V1299.94C8840.42 1299.94 8827.77 1294.51 8827.77 1163.47Z" fill="#10B981"/>
</g>
</mask>
<g mask="url(#mask0_25_171)">
<rect x="-329" y="-533" width="11539" height="2731" fill="white"/>
<g filter="url(#filter0_f_25_171)">
<path d="M-1769 919.964C-1414.45 704.904 -272.527 274.784 1458.78 274.784C3622.92 274.784 3532.03 1299.58 5804.25 1308.95C7622.03 1316.44 9518.83 534.105 10240 142" stroke="#7E349F" stroke-width="427"/>
</g>
<g filter="url(#filter1_f_25_171)">
<path d="M-2643.78 1991.5C-2330.18 1748.04 -1278.23 1177.91 420.796 845.13C2544.58 429.149 2619.01 1282.02 4850.36 852.9C6635.44 509.605 8371.95 -492.74 9017.07 -951" stroke="#2E378B" stroke-width="427"/>
</g>
<g filter="url(#filter2_f_25_171)">
<path d="M311.217 2710.5C624.816 2467.04 1676.77 1896.91 3375.8 1564.13C5499.58 1148.15 5574.01 2001.02 7805.36 1571.9C9590.44 1228.6 11326.9 226.26 11972.1 -232" stroke="#2E378B" stroke-width="427"/>
</g>
<g filter="url(#filter3_f_25_171)">
<path d="M-682.968 1775.22C-371.152 1643.47 648.258 1321.57 2231.36 1088.04C4210.24 796.121 4186.13 1208.32 6264.38 905.477C7926.98 663.204 9616.37 102.032 10253.2 -148.27" stroke="#71BCBB" stroke-width="427"/>
</g>
</g>
<defs>
<filter id="filter0_f_25_171" x="-2279.73" y="-445.568" width="13021.7" height="2368.07" filterUnits="userSpaceOnUse" color-interpolation-filters="sRGB">
<feFlood flood-opacity="0" result="BackgroundImageFix"/>
<feBlend mode="normal" in="SourceGraphic" in2="BackgroundImageFix" result="shape"/>
<feGaussianBlur stdDeviation="200" result="effect1_foregroundBlur_25_171"/>
</filter>
<filter id="filter1_f_25_171" x="-3174.71" y="-1525.06" width="12715.4" height="4085.2" filterUnits="userSpaceOnUse" color-interpolation-filters="sRGB">
<feFlood flood-opacity="0" result="BackgroundImageFix"/>
<feBlend mode="normal" in="SourceGraphic" in2="BackgroundImageFix" result="shape"/>
<feGaussianBlur stdDeviation="200" result="effect1_foregroundBlur_25_171"/>
</filter>
<filter id="filter2_f_25_171" x="-219.71" y="-806.056" width="12715.4" height="4085.2" filterUnits="userSpaceOnUse" color-interpolation-filters="sRGB">
<feFlood flood-opacity="0" result="BackgroundImageFix"/>
<feBlend mode="normal" in="SourceGraphic" in2="BackgroundImageFix" result="shape"/>
<feGaussianBlur stdDeviation="200" result="effect1_foregroundBlur_25_171"/>
</filter>
<filter id="filter3_f_25_171" x="-1166.07" y="-746.975" width="11897.4" height="3118.86" filterUnits="userSpaceOnUse" color-interpolation-filters="sRGB">
<feFlood flood-opacity="0" result="BackgroundImageFix"/>
<feBlend mode="normal" in="SourceGraphic" in2="BackgroundImageFix" result="shape"/>
<feGaussianBlur stdDeviation="200" result="effect1_foregroundBlur_25_171"/>
</filter>
<clipPath id="clip0_25_171">
<rect width="8643.84" height="1000" fill="white" transform="translate(373 309)"/>
</clipPath>
</defs>
</svg>
